<?xml version="1.0" encoding="iso-8859-1"?>
<!-- Generator: Adobe Illustrator 16.0.0, SVG Export Plug-In . SVG Version: 6.00 Build 0)  -->
<!DOCTYPE svg PUBLIC "-//W3C//DTD SVG 1.1//EN" "http://www.w3.org/Graphics/SVG/1.1/DTD/svg11.dtd">
<svg version="1.1" id="Capa_1" xmlns="http://www.w3.org/2000/svg" xmlns:xlink="http://www.w3.org/1999/xlink" x="0px" y="0px"
	 width="378.618px" height="378.618px" viewBox="0 0 378.618 378.618" style="enable-background:new 0 0 378.618 378.618;"
	 xml:space="preserve">
<g>
	<g>
		<g>
			<path style="fill:#030303;" d="M189.312,378.609c-7.185,0-13.789-3.922-17.242-10.24l-32.41-59.222l-64.782,18.978
				c-6.727,1.968-14.449,0.018-19.421-4.98c-5.083-5.055-6.984-12.511-4.96-19.418l18.967-64.773l-59.222-32.387
				C3.922,203.102,0,196.491,0,189.314c0-7.179,3.917-13.788,10.235-17.248l59.227-32.393L50.496,74.886
				c-2.039-6.893-0.128-14.341,4.972-19.433c5.041-5.049,12.611-6.981,19.444-4.96l64.753,18.97l32.41-59.225
				c3.454-6.312,10.058-10.229,17.243-10.229c7.188,0,13.798,3.923,17.251,10.235l32.41,59.219l64.768-18.97
				c6.639-1.99,14.415-0.049,19.424,4.96c5.09,5.104,6.988,12.546,4.964,19.438l-18.961,64.771l59.222,32.393
				c6.312,3.465,10.224,10.075,10.224,17.259c0,7.177-3.911,13.787-10.213,17.24l-59.244,32.398l18.967,64.768
				c2.041,6.902,0.132,14.347-4.969,19.436c-4.964,4.964-12.574,6.947-19.401,4.969l-64.791-18.983l-32.409,59.233
				C203.115,374.688,196.505,378.609,189.312,378.609z M145.409,295.264l36.93,67.479c1.398,2.567,4.068,4.151,6.967,4.151
				c2.905,0,5.575-1.584,6.971-4.146l36.938-67.484l73.819,21.62c2.739,0.789,5.832,0.012,7.856-2.007
				c2.07-2.064,2.825-5.061,2.007-7.846l-21.608-73.83l67.484-36.916c2.539-1.395,4.128-4.071,4.128-6.976
				c0-2.911-1.589-5.587-4.14-6.99l-67.473-36.907l21.604-73.816c0.823-2.793,0.051-5.804-2.008-7.865
				c-2.019-2.007-5.095-2.816-7.828-2.007l-73.836,21.634l-36.933-67.493c-1.396-2.559-4.065-4.14-6.977-4.14
				c-2.904,0-5.575,1.586-6.967,4.14l-36.93,67.493L71.604,61.734c-2.788-0.814-5.838-0.005-7.856,2.01
				c-2.067,2.058-2.833,5.063-2.016,7.845l21.625,73.839l-67.496,36.901c-2.559,1.398-4.146,4.074-4.146,6.979
				c0,2.904,1.593,5.575,4.151,6.976l67.481,36.916l-21.617,73.819c-0.817,2.796-0.051,5.798,2.004,7.845
				c2.024,2.036,5.146,2.813,7.846,2.019L145.409,295.264z M189.323,342.357l-53.006-96.908c-0.732-1.339-1.827-2.431-3.156-3.156
				l-96.906-52.995l57.283-31.332v-2.384l4.368-0.005l35.243-19.275c1.341-0.732,2.43-1.821,3.162-3.162l53.012-96.915
				l52.994,96.897c0.732,1.347,1.824,2.436,3.151,3.168l96.926,53.003l-96.92,53.006c-1.339,0.737-2.425,1.824-3.157,3.156
				L189.323,342.357z M101.9,211.85l36.875,20.168c3.296,1.801,6.001,4.5,7.817,7.816l42.736,78.119l42.719-78.113
				c1.796-3.3,4.495-5.999,7.822-7.816l78.131-42.731l-78.131-42.728c-3.316-1.807-6.026-4.512-7.833-7.834l-42.708-78.103
				l-42.736,78.125c-1.81,3.305-4.515,6.01-7.817,7.817l-78.108,42.722L101.9,211.85z"/>
		</g>
		<g>
			<path style="fill:#030303;" d="M189.317,242.047c-26.389,0-47.854-21.46-47.854-47.843s21.471-47.849,47.854-47.849
				s47.843,21.466,47.843,47.849S215.7,242.047,189.317,242.047z M189.317,158.066c-19.93,0-36.144,16.213-36.144,36.138
				c0,19.921,16.219,36.132,36.144,36.132c19.916,0,36.132-16.211,36.132-36.132C225.449,174.279,209.245,158.066,189.317,158.066z
				 M189.317,214.435c-11.159,0-20.242-9.081-20.242-20.225c0-11.165,9.083-20.248,20.242-20.248c11.156,0,20.23,9.083,20.23,20.248
				C209.548,205.354,200.479,214.435,189.317,214.435z M189.317,185.667c-4.7,0-8.531,3.825-8.531,8.537
				c0,4.7,3.831,8.514,8.531,8.514c4.706,0,8.52-3.813,8.52-8.514C197.837,189.492,194.023,185.667,189.317,185.667z"/>
		</g>
	</g>
</g>
<g>
</g>
<g>
</g>
<g>
</g>
<g>
</g>
<g>
</g>
<g>
</g>
<g>
</g>
<g>
</g>
<g>
</g>
<g>
</g>
<g>
</g>
<g>
</g>
<g>
</g>
<g>
</g>
<g>
</g>
</svg>
