<?xml version="1.0" encoding="iso-8859-1"?>
<!-- Generator: Adobe Illustrator 19.0.0, SVG Export Plug-In . SVG Version: 6.00 Build 0)  -->
<svg version="1.1" id="Layer_1" xmlns="http://www.w3.org/2000/svg" xmlns:xlink="http://www.w3.org/1999/xlink" x="0px" y="0px"
	 viewBox="0 0 290.627 290.627" style="enable-background:new 0 0 290.627 290.627;" xml:space="preserve">
<g>
	<g>
		<g>
			<path d="M253.121,234.375L253.121,234.375h4.689c21.038,0,27.019-10.744,27.633-11.967l2.705-5.414l-5.916-1.27
				c-15.984-3.422-32.325-9.455-47.859-16.58v-16.331h14.063c0.68,0,6.802-0.169,12.689-6.061l8.002-8.002h-11.318
				c-0.216,0-20.897-0.178-42.188-12.113v-11.325h14.063c16.767,0,22.697-11.48,22.945-11.967l2.742-5.489l-6.019-1.205
				c-12.464-2.494-25.702-7.791-38.353-14.156c12.084-0.042,17.944-11.475,18.188-11.963l3.394-6.783h-7.584
				c-6.384,0-26.822-5.287-37.5-8.241V75h9.375v-9.375h-18.75V56.25h9.375c12.131,0,18.009-11.48,18.258-11.967l3.389-6.783h-7.584
				c-6.759,0-26.592-6.042-34.964-8.789c-7.481-7.561-15.652-16.978-16.598-19.744V0h-9.375v8.967
				c-0.947,2.766-9.117,12.183-16.598,19.748c-8.367,2.742-28.2,8.784-34.964,8.784h-7.584l3.394,6.783
				c0.244,0.487,6.122,11.967,18.253,11.967h9.375v9.375h-18.75V75h9.375v10.509c-10.678,2.953-31.111,8.241-37.5,8.241H58.04
				l3.394,6.783c0.244,0.488,6.103,11.925,18.197,11.963c-12.652,6.366-25.889,11.662-38.362,14.156l-6.019,1.205l2.742,5.489
				c0.248,0.488,6.178,11.967,22.945,11.967H75v11.325c-21.192,11.873-41.981,12.113-42.192,12.113l-11.273,0.033l7.969,7.969
				c5.883,5.892,12.005,6.061,12.684,6.061h14.063v16.336c-15.53,7.125-31.87,13.153-47.855,16.58L2.48,217l2.705,5.414
				c0.609,1.219,6.591,11.963,27.628,11.963h4.688v46.875H4.684v9.375h281.25v-9.375h-32.813V234.375z M231.053,173.438h-43.557
				v0.15c-5.32-3.328-10.228-6.534-14.662-9.525h36.891C217.108,168.352,224.434,171.371,231.053,173.438z M224.996,182.812v11.841
				c-7.697-3.816-15.117-7.823-22.116-11.841H224.996z M168.746,154.688v-9.375h14.063v9.375H168.746z M192.184,154.688v-9.375
				h14.063v9.375H192.184z M182.154,93.75c4.153,1.177,21.155,5.92,33.239,8.175c-1.276,0.712-2.771,1.2-4.459,1.2h-17.015
				c-5.273-3.122-10.303-6.295-14.967-9.375H182.154z M145.309,18.952c1.795,2.414,4.294,5.423,7.739,9.173h-15.478
				C141.014,24.375,143.514,21.366,145.309,18.952z M103.121,46.875c-1.758,0-3.3-0.525-4.613-1.284
				c10.842-2.264,24.994-6.834,28.805-8.091H163.3c3.811,1.256,17.967,5.827,28.805,8.091c-1.308,0.759-2.85,1.284-4.608,1.284
				H103.121z M178.121,75v9.375h-12.773c-5.292-3.806-9.577-7.069-12.53-9.375H178.121z M121.871,65.625V56.25h46.875v9.375H121.871
				z M112.496,75H137.8c-2.953,2.306-7.233,5.569-12.525,9.375h-12.778V75z M75.22,101.925c12.089-2.255,29.091-6.998,33.244-8.175
				h3.211c-4.664,3.08-9.689,6.253-14.967,9.375H79.684C77.991,103.125,76.501,102.637,75.22,101.925z M60.933,135.937
				c-4.083,0.001-7.148-0.942-9.38-2.128c39.619-11.086,82.139-43.505,93.755-52.772c11.611,9.263,54.136,41.686,93.755,52.772
				c-2.236,1.186-5.297,2.128-9.38,2.128h-60.938h-9.375h-51.562h-9.375H60.933z M159.371,145.312v9.366
				c-6.905-4.988-10.969-8.208-11.133-8.339l-1.289-1.027H159.371z M131.246,145.314L131.246,145.314l12.422-0.001l-1.284,1.027
				c-0.164,0.131-4.233,3.356-11.133,8.344v-9.37H131.246z M121.871,145.313v9.375h-14.063v-9.375H121.871z M98.434,145.313v9.375
				H84.371v-9.375H98.434z M80.894,164.063h36.9c-4.439,2.991-9.352,6.202-14.672,9.53v-0.155H59.561
				C66.178,171.375,73.511,168.352,80.894,164.063z M87.751,182.813c-7.003,4.022-14.428,8.034-22.13,11.85v-11.85H87.751z
				 M32.808,225c-6.051,0-10.317-1.05-13.27-2.325c56.213-15.056,112.336-56.395,125.77-66.727
				c13.434,10.331,69.548,51.666,125.761,66.727c-2.953,1.28-7.219,2.325-13.261,2.325h-98.438h-28.125H32.808z M149.996,234.375
				v9.375h-9.375v-9.375H149.996z M65.621,281.25h-18.75v-9.375h18.75V281.25z M65.621,262.5h-18.75v-28.125h18.75V262.5z
				 M215.621,281.25H74.996v-9.375h140.625V281.25z M215.621,262.5h-14.063v-9.375h-9.375v9.375h-9.375v-9.375h-9.375v9.375h-56.25
				v-9.375h-9.375v9.375h-9.375v-9.375h-9.375v9.375H74.996v-28.125h14.062v9.375h9.375v-9.375h9.375v9.375h9.375v-9.375h14.062
				v18.75h28.125v-18.75h14.063v9.375h9.375v-9.375h9.375v9.375h9.375v-9.375h14.063V262.5z M243.746,281.25h-18.75v-9.375h18.75
				V281.25z M243.746,262.5h-18.75v-28.125h18.75V262.5z"/>
			<path d="M201.56,121.875h-0.001h-3.82c-11.353-4.153-39.53-24.309-49.617-31.875l-2.813-2.109L142.496,90
				c-10.083,7.566-38.259,27.722-49.617,31.875h-3.82v9.375h112.5V121.875z M159.371,121.875v-4.688h-9.375v4.688h-9.375v-4.688
				h-9.375v4.688h-18.511c12.568-7.753,26.654-17.93,32.574-22.289c5.92,4.359,20.006,14.536,32.573,22.289H159.371z"/>
			<path d="M220.309,206.25h-8.728c-18.028-4.866-63.127-36.333-63.586-36.652l-2.686-1.884l-2.686,1.88
				c-0.459,0.323-45.548,31.791-63.586,36.656h-8.728v9.375h150V206.25z M168.748,206.25v-9.375h-9.376v9.375h-9.375v-9.375h-9.375
				v9.375h-9.375v-9.375h-9.375v9.375h-20.02c17.02-9.216,36.398-22.266,43.458-27.113c7.059,4.847,26.438,17.897,43.458,27.113
				H168.748z"/>
			<rect x="140.621" y="103.125" width="9.375" height="9.375"/>
			<rect x="140.621" y="182.813" width="9.375" height="9.375"/>
		</g>
	</g>
</g>
<g>
</g>
<g>
</g>
<g>
</g>
<g>
</g>
<g>
</g>
<g>
</g>
<g>
</g>
<g>
</g>
<g>
</g>
<g>
</g>
<g>
</g>
<g>
</g>
<g>
</g>
<g>
</g>
<g>
</g>
</svg>
