<?xml version="1.0" encoding="iso-8859-1"?>
<!-- Generator: Adobe Illustrator 17.1.0, SVG Export Plug-In . SVG Version: 6.00 Build 0)  -->
<!DOCTYPE svg PUBLIC "-//W3C//DTD SVG 1.1//EN" "http://www.w3.org/Graphics/SVG/1.1/DTD/svg11.dtd">
<svg version="1.1" id="Capa_1" xmlns="http://www.w3.org/2000/svg" xmlns:xlink="http://www.w3.org/1999/xlink" x="0px" y="0px"
	 viewBox="0 0 465 465" style="enable-background:new 0 0 465 465;" xml:space="preserve">
<g>
	<path d="M367.246,336.447c7.847-3.371,14.134-11.533,14.134-19.818V21.438C381.38,10.618,370.664,0,359.746,0H105.254
		C94.336,0,83.62,10.618,83.62,21.438v371.066c0,8.028,7.071,13.423,17.595,13.423h21.437V457.5c0,4.143,3.358,7.5,7.5,7.5
		s7.5-3.357,7.5-7.5v-59.063c0-0.003,0-0.006,0-0.01s0-0.006,0-0.01v-26.42h17.511V457.5c0,4.143,3.358,7.5,7.5,7.5
		s7.5-3.357,7.5-7.5v-51.573H373.88c4.143,0,7.5-3.357,7.5-7.5s-3.357-7.5-7.5-7.5h-6.634V336.447z M366.38,21.438v295.191
		c0,2.587-3.968,6.438-6.634,6.438H137.652V15h222.094C362.412,15,366.38,18.851,366.38,21.438z M98.62,21.438
		c0-2.587,3.968-6.438,6.634-6.438h17.398v308.066h-21.437c-0.867,0-1.734,0.085-2.595,0.246V21.438z M170.163,390.927v-18.93
		l99.123,0c4.143,0,7.5-3.358,7.5-7.5c0-4.143-3.358-7.5-7.5-7.5l-106.609,0c-0.005,0-0.009,0-0.014,0s-0.009,0-0.014,0l-32.479,0
		c-0.006,0-0.012-0.001-0.018-0.001s-0.012,0.001-0.018,0.001h-12.952c-4.142,0-7.5,3.357-7.5,7.5s3.358,7.5,7.5,7.5h5.47v18.93
		h-21.437c-1.081,0-1.962-0.121-2.595-0.264v-50.306c0.356-0.818,1.864-2.112,2.691-2.291h250.935v18.93h-52.961
		c-4.143,0-7.5,3.357-7.5,7.5s3.357,7.5,7.5,7.5h52.961v18.931H170.163z"/>
	<path d="M186.448,154.578c0.441,3.779,3.644,6.63,7.449,6.63h21.679l4.481,21.256c0.731,3.47,3.793,5.953,7.339,5.953h49.241
		c3.546,0,6.607-2.483,7.339-5.953l4.48-21.256h21.679c3.806,0,7.008-2.85,7.449-6.63c2.985-25.561-3.382-49.299-17.471-65.128
		c-11.887-13.357-28.519-20.417-48.098-20.417c-19.578,0-36.21,7.06-48.097,20.416C189.83,105.279,183.462,129.018,186.448,154.578z
		 M215.124,99.422c9.088-10.211,21.5-15.389,36.892-15.389c15.393,0,27.805,5.178,36.894,15.389
		c10.066,11.312,15.146,28.101,14.313,46.786h-20.85c-3.546,0-6.607,2.483-7.339,5.953l-4.48,21.256h-37.073l-4.481-21.256
		c-0.731-3.47-3.793-5.953-7.339-5.953h-20.85C199.978,127.522,205.057,110.732,215.124,99.422z"/>
	<path d="M233.514,131.809h3.699c4.143,0,7.5-3.357,7.5-7.5s-3.357-7.5-7.5-7.5h-3.699c-4.142,0-7.5,3.357-7.5,7.5
		S229.372,131.809,233.514,131.809z"/>
	<path d="M266.819,131.809h3.699c4.143,0,7.5-3.357,7.5-7.5s-3.357-7.5-7.5-7.5h-3.699c-4.143,0-7.5,3.357-7.5,7.5
		S262.677,131.809,266.819,131.809z"/>
	<path d="M317.039,209.279c-1.619-3.814-6.024-5.591-9.834-3.975l-55.189,23.419l-55.189-23.419
		c-3.813-1.617-8.216,0.162-9.834,3.975c-1.618,3.813,0.162,8.216,3.975,9.834l41.848,17.758l-41.848,17.758
		c-3.813,1.618-5.592,6.021-3.975,9.834c1.212,2.857,3.988,4.572,6.908,4.572c0.977,0,1.97-0.192,2.926-0.598l55.189-23.419
		l55.189,23.419c0.956,0.405,1.949,0.598,2.927,0.598c2.919,0,5.694-1.716,6.907-4.572c1.618-3.813-0.161-8.216-3.975-9.834
		l-41.848-17.758l41.848-17.758C316.878,217.495,318.657,213.093,317.039,209.279z"/>
</g>
<g>
</g>
<g>
</g>
<g>
</g>
<g>
</g>
<g>
</g>
<g>
</g>
<g>
</g>
<g>
</g>
<g>
</g>
<g>
</g>
<g>
</g>
<g>
</g>
<g>
</g>
<g>
</g>
<g>
</g>
</svg>
