<?xml version="1.0" encoding="iso-8859-1"?>
<!-- Generator: Adobe Illustrator 16.0.0, SVG Export Plug-In . SVG Version: 6.00 Build 0)  -->
<!DOCTYPE svg PUBLIC "-//W3C//DTD SVG 1.1//EN" "http://www.w3.org/Graphics/SVG/1.1/DTD/svg11.dtd">
<svg version="1.1" id="Capa_1" xmlns="http://www.w3.org/2000/svg" xmlns:xlink="http://www.w3.org/1999/xlink" x="0px" y="0px"
	 width="40.912px" height="40.912px" viewBox="0 0 40.912 40.912" style="enable-background:new 0 0 40.912 40.912;"
	 xml:space="preserve">
<g>
	<path d="M15.503,25.906c0.17,0.82-0.55,1.771-1.6,2.12l-9.85,3.26c-1.05,0.351-1.23,0.04-0.41-0.699l7.72-6.881
		c0.83-0.729,2.02-0.869,2.67-0.3C14.684,23.967,15.344,25.087,15.503,25.906z M36.343,30.566l-7.63-6.8
		c-0.819-0.73-1.94-0.93-2.489-0.45c-0.561,0.49-1.16,1.61-1.36,2.5c-0.19,0.88,0.5,1.89,1.54,2.24l9.54,3.21
		C36.994,31.616,37.173,31.307,36.343,30.566z M37.773,11.386c-0.02,0-0.84,0.26-1.869,0.59l-11.061,3.59
		c-1.05,0.34-2.13-0.25-2.42-1.32l-0.72-2.71c-0.28-1.07-0.01-2.68,0.61-3.59l0.85-1.26c0.609-0.91,0.59-2.38-0.05-3.28l-1.979-2.74
		c-0.641-0.89-1.69-0.89-2.331,0.01l-1.96,2.73c-0.64,0.89-0.66,2.36-0.05,3.28l0.85,1.26c0.62,0.91,0.89,2.52,0.61,3.59l-0.73,2.73
		c-0.28,1.07-1.36,1.66-2.41,1.32l-11.07-3.59c-1.06-0.34-1.23-0.03-0.4,0.69l9.56,8.32l0.71,0.619l0.72,0.631l0.86,0.75
		c0.48,0.42,1.01,1.479,1.19,2.369c0.18,0.9,0.32,1.62,0.32,1.62l0.13,0.62l0.12,0.62l2.36,11.86c0.22,1.08,0.59,1.09,0.82,0.01
		l2.61-11.85l0.13-0.62l0.141-0.62l0.38-1.74c0.21-0.96,0.71-2.03,1.11-2.38c0.399-0.36,0.729-0.64,0.729-0.64l0.7-0.62l0.71-0.63
		l9.399-8.301c0.811-0.71,1.45-1.28,1.45-1.31C37.763,11.406,37.753,11.406,37.773,11.386z"/>
</g>
<g>
</g>
<g>
</g>
<g>
</g>
<g>
</g>
<g>
</g>
<g>
</g>
<g>
</g>
<g>
</g>
<g>
</g>
<g>
</g>
<g>
</g>
<g>
</g>
<g>
</g>
<g>
</g>
<g>
</g>
</svg>
