<?xml version="1.0" encoding="iso-8859-1"?>
<!-- Generator: Adobe Illustrator 19.0.0, SVG Export Plug-In . SVG Version: 6.00 Build 0)  -->
<svg version="1.1" id="Layer_1" xmlns="http://www.w3.org/2000/svg" xmlns:xlink="http://www.w3.org/1999/xlink" x="0px" y="0px"
	 viewBox="0 0 512 512" style="enable-background:new 0 0 512 512;" xml:space="preserve">
<g>
	<g>
		<g>
			<path d="M128.17,102.4h-0.085c-4.71,0-8.491,3.823-8.491,8.533s3.857,8.533,8.576,8.533c4.719,0,8.533-3.823,8.533-8.533
				S132.889,102.4,128.17,102.4z"/>
			<path d="M384.17,102.4h-0.085c-4.71,0-8.491,3.823-8.491,8.533s3.866,8.533,8.576,8.533c4.719,0,8.533-3.823,8.533-8.533
				S388.889,102.4,384.17,102.4z"/>
			<path d="M298.837,102.4h-0.085c-4.71,0-8.491,3.823-8.491,8.533s3.866,8.533,8.576,8.533c4.719,0,8.533-3.823,8.533-8.533
				S303.556,102.4,298.837,102.4z"/>
			<path d="M213.504,102.4h-0.085c-4.71,0-8.491,3.823-8.491,8.533s3.866,8.533,8.576,8.533c4.719,0,8.533-3.823,8.533-8.533
				S218.223,102.4,213.504,102.4z"/>
			<path d="M213.504,409.6c4.719,0,8.533-3.823,8.533-8.533s-3.814-8.533-8.533-8.533h-0.085c-4.71,0-8.491,3.823-8.491,8.533
				S208.793,409.6,213.504,409.6z"/>
			<path d="M34.048,153.6h443.733c0.051-0.009,0.111-0.009,0.171,0c4.71,0,8.533-3.823,8.533-8.533c0-1.314-0.299-2.551-0.828-3.661
				l-16.666-66.68c-0.947-3.797-4.361-6.46-8.277-6.46h-6.306c-17.34-52.361-38.238-65.758-40.644-67.132
				C412.467,0.393,411.008,0,409.514,0h-76.8c-0.102,0-0.188,0.051-0.29,0.06c-0.461,0.017-0.913,0.179-1.382,0.273
				c-0.64,0.128-1.271,0.222-1.869,0.503c-0.077,0.034-0.171,0.026-0.247,0.06c-0.367,0.188-0.606,0.503-0.939,0.725
				c-0.435,0.307-0.93,0.495-1.306,0.879l-11.034,11.034L304.614,2.5c-1.596-1.604-3.772-2.5-6.033-2.5H102.314
				c-1.493,0-2.953,0.393-4.25,1.135C95.658,2.509,74.76,15.906,57.42,68.267h-6.306c-3.917,0-7.33,2.662-8.277,6.46L25.77,142.993
				c-0.64,2.551-0.06,5.256,1.553,7.322C28.936,152.388,31.419,153.6,34.048,153.6z M406.698,17.067
				c4.454,3.755,17.553,17.101,29.687,51.2h-77.218c-5.018-24.32-10.172-41.045-13.815-51.2H406.698z M264.448,17.067h30.601
				l14.566,14.566c3.336,3.337,8.73,3.337,12.066,0l7.91-7.91c3.191,9.028,7.68,23.637,12.143,44.544h-77.286V17.067z
				 M184.729,17.067h62.652v51.2h-77.286C175.914,41.045,181.76,24.508,184.729,17.067z M105.105,17.067h61.372
				c-3.644,10.155-8.789,26.871-13.815,51.2H75.443C87.628,34.022,100.778,20.71,105.105,17.067z M57.779,85.333h390.417
				c0.009,0,0.017,0.009,0.026,0.009s0.017-0.009,0.026-0.009h5.803l12.8,51.2H44.979L57.779,85.333z"/>
			<path d="M477.781,358.4h-5.649c3.686-30.771,5.649-65.041,5.649-102.4c0-27.571-1.015-53.658-3.012-77.508
				c-0.393-4.702-4.506-8.218-9.216-7.799c-4.693,0.401-8.183,4.523-7.791,9.216c1.963,23.39,2.953,48.99,2.953,76.092
				c0,37.504-1.988,71.799-5.76,102.4h-83.831c2.782-31.735,4.258-66.039,4.258-102.4c0-26.888-0.777-52.907-2.304-77.338
				c-0.29-4.702-4.318-8.269-9.045-7.979c-4.702,0.299-8.277,4.343-7.987,9.045c1.51,24.081,2.27,49.741,2.27,76.271
				c0,36.429-1.493,70.758-4.309,102.4h-89.557V179.2c0-4.71-3.823-8.533-8.533-8.533c-4.71,0-8.533,3.823-8.533,8.533v179.2h-89.54
				c-2.833-31.684-4.326-65.997-4.326-102.4c0-26.53,0.759-52.19,2.27-76.271c0.29-4.702-3.285-8.747-7.987-9.045
				c-4.702-0.265-8.755,3.285-9.045,7.979c-1.527,24.431-2.304,50.449-2.304,77.338c0,36.335,1.485,70.622,4.267,102.4h-83.84
				c-3.772-30.601-5.76-64.896-5.76-102.4c0-27.102,0.99-52.702,2.953-76.092c0.393-4.693-3.098-8.815-7.791-9.216
				c-4.727-0.41-8.823,3.098-9.216,7.799c-1.997,23.851-3.012,49.937-3.012,77.508c0,37.359,1.963,71.629,5.649,102.4h-5.649
				c-2.628,0-5.111,1.212-6.724,3.285c-1.613,2.065-2.193,4.77-1.553,7.322l17.067,68.267c0.947,3.789,4.361,6.46,8.277,6.46h409.6
				c3.917,0,7.33-2.671,8.277-6.46l17.067-68.267c0.64-2.551,0.068-5.257-1.553-7.322C482.892,359.612,480.409,358.4,477.781,358.4z
				 M454.05,426.667H57.779l-12.8-51.2h101.76c1.033,0.435,2.142,0.708,3.311,0.708c0.273,0,0.555-0.008,0.845-0.034
				c0.794-0.085,1.476-0.401,2.185-0.674H466.85L454.05,426.667z"/>
			<path d="M298.837,409.6c4.719,0,8.533-3.823,8.533-8.533s-3.814-8.533-8.533-8.533h-0.085c-4.71,0-8.491,3.823-8.491,8.533
				S294.127,409.6,298.837,409.6z"/>
			<path d="M384.17,409.6c4.719,0,8.533-3.823,8.533-8.533s-3.814-8.533-8.533-8.533h-0.085c-4.71,0-8.491,3.823-8.491,8.533
				S379.46,409.6,384.17,409.6z"/>
			<path d="M438.86,461.372c-4.233-2.065-9.344-0.307-11.409,3.925c-9.105,18.628-17.451,26.88-20.727,29.636h-61.389
				c2.048-5.7,4.557-13.355,7.27-23.373c1.229-4.548-1.459-9.233-6.016-10.462c-4.531-1.22-9.233,1.459-10.462,6.007
				c-3.712,13.705-7.014,22.81-9.02,27.827h-62.66v-25.6c0-4.71-3.823-8.533-8.533-8.533c-4.71,0-8.533,3.823-8.533,8.533v25.6h-5
				l-14.566-14.566c-3.337-3.336-8.73-3.336-12.066,0l-14.566,14.566h-16.452c-2.005-5.018-5.308-14.123-9.011-27.819
				c-1.229-4.548-5.914-7.236-10.47-6.007c-4.54,1.229-7.236,5.914-6.007,10.462c2.714,10.018,5.205,17.664,7.253,23.364h-61.372
				c-3.362-2.825-11.614-11.025-20.625-29.389c-2.082-4.233-7.194-5.99-11.426-3.908c-4.233,2.082-5.973,7.194-3.9,11.418
				c14.089,28.706,27.418,36.966,28.894,37.811c1.289,0.742,2.756,1.135,4.25,1.135h102.4c2.261,0,4.437-0.904,6.033-2.5
				l11.034-11.034l11.034,11.034c1.596,1.596,3.772,2.5,6.033,2.5h170.667c1.493,0,2.961-0.393,4.25-1.135
				c1.485-0.845,14.899-9.156,29.013-38.076C444.851,468.548,443.093,463.445,438.86,461.372z"/>
			<path d="M128.17,392.533h-0.085c-4.71,0-8.491,3.823-8.491,8.533s3.857,8.533,8.576,8.533c4.719,0,8.533-3.823,8.533-8.533
				S132.889,392.533,128.17,392.533z"/>
		</g>
	</g>
</g>
<g>
</g>
<g>
</g>
<g>
</g>
<g>
</g>
<g>
</g>
<g>
</g>
<g>
</g>
<g>
</g>
<g>
</g>
<g>
</g>
<g>
</g>
<g>
</g>
<g>
</g>
<g>
</g>
<g>
</g>
</svg>
